<?xml version="1.0" encoding="UTF-8"?><svg id="Layer_2" xmlns="http://www.w3.org/2000/svg" viewBox="0 0 330.96 257.9"><defs><style>.cls-1{letter-spacing:.36em;}.cls-2{letter-spacing:.36em;}.cls-3{fill:#2bc1d7;}.cls-3,.cls-4,.cls-5,.cls-6{stroke-width:0px;}.cls-4,.cls-7{fill:#fff;}.cls-8{letter-spacing:.29em;}.cls-9{stroke:#fff;stroke-miterlimit:10;}.cls-10{letter-spacing:.29em;}.cls-5{fill:#ffce51;}.cls-6{fill:#dc0c81;}.cls-7{font-family:LEMONMILK-Light, 'LEMON MILK';font-size:24px;font-weight:300;}</style></defs><g id="Draft1"><path class="cls-4" d="m81.86,21.94l1.1-1.9c.75.63,2,1.07,3.16,1.07h.08c3,0,5.44-2.48,5.44-5.46l-.05-11.6h2.13s.04,11.62.04,11.62c0,4.21-3.36,7.57-7.54,7.57h-.13c-1.43,0-3.09-.52-4.24-1.3Z"/><path class="cls-4" d="m103.27,13.51c0-5.36,4.37-9.73,9.7-9.73s9.71,4.37,9.71,9.73-4.37,9.68-9.73,9.68-9.69-4.36-9.69-9.68Zm17.26-.01c0-4.16-3.4-7.57-7.57-7.57s-7.54,3.41-7.54,7.57,3.39,7.54,7.54,7.54,7.57-3.39,7.57-7.54Z"/><path class="cls-4" d="m145.45,4.05l-8.6,19.18h-.26l-8.57-19.18h2.26l6.42,14.64,6.45-14.64h2.3Z"/><path class="cls-4" d="m164.24,19.84h-10.31l-1.38,3.11h-2.31l8.73-19.18h.23l8.74,19.18h-2.32l-1.38-3.11Zm-.82-1.85l-4.32-9.71-4.34,9.71h8.66Z"/><path class="cls-4" d="m190.96,4v19.23h-.11l-12.95-14.38v14.11h-2.13V3.76h.12l12.94,14.37V4h2.13Z"/><text class="cls-7" transform="translate(135.88 251.68)"><tspan class="cls-10" x="0" y="0">K</tspan><tspan class="cls-2" x="22.05" y="0">O</tspan><tspan class="cls-8" x="52.1" y="0">U</tspan><tspan class="cls-1" x="76.57" y="0">A</tspan><tspan class="cls-10" x="103.51" y="0">K</tspan><tspan class="cls-2" x="125.56" y="0">OU</tspan></text><path class="cls-3" d="m23.88,218.03l27.06-35.88c7.25,5.5,12.07-.62,21.94-.62h.88c18.5,0,33.13-14.5,33.13-30.62l-1-123.75,53.62.13v124.67c0,45.62-37.38,79.95-85.5,79.95h-1.5c-19,0-34-4.38-48.62-13.88Z"/><path class="cls-3" d="m266.09,228.68l-51-76.62v76.62h-53.37V27.18h53.37v75.12l46.75-75.12h61.5l-61.75,98.25,69.38,103.25h-64.88Z"/><path class="cls-5" d="m15.32,218.03l27.53-36.01c7.25,5.5,11.59-.49,21.47-.49h.88c18.5,0,33.13-14.5,33.13-30.62l-1-123.75,53.62.13v124.67c0,45.62-37.38,79.95-85.5,79.95h-1.5c-19,0-34-4.38-48.62-13.88Z"/><path class="cls-5" d="m257.53,228.68l-51-76.62v76.62h-53.37V27.18h53.37v75.12l46.75-75.12h61.5l-61.75,98.25,69.38,103.25h-64.88Z"/><path class="cls-6" d="m7.92,218.03l20.19-40.97c7.25,5.5,18.93,4.47,28.81,4.47h.88c18.5,0,33.13-14.5,33.13-30.62l-1-123.75,53.62.13v124.67c0,45.62-36.92,79.79-85.05,79.79l-2.3-.12c-19,0-33.65-4.1-48.28-13.6Z"/><path class="cls-6" d="m250.13,228.68l-51-76.62v76.62h-53.37V27.18h53.37v75.12l46.75-75.12h61.5l-61.75,98.25,69.38,103.25h-64.88Z"/><path class="cls-4" d="m0,218.03l27-44.12c7.25,5.5,12.12,7.63,22,7.63h.88c18.5,0,33.13-14.5,33.13-30.62l-1-123.75,53.62.13v124.67c0,45.62-37.38,79.95-85.5,79.95h-1.5c-19,0-34-4.38-48.62-13.88Z"/><path class="cls-4" d="m242.21,228.68l-51-76.62v76.62h-53.37V27.18h53.37v75.12l46.75-75.12h61.5l-61.75,98.25,69.38,103.25h-64.88Z"/><line class="cls-9" x1="307.09" y1="255.06" x2="16.26" y2="255.06"/><line class="cls-9" x1="293.13" y1=".5" x2="91.69" y2=".5"/></g></svg>