<?xml version="1.0" standalone="no"?>
<!DOCTYPE svg PUBLIC "-//W3C//DTD SVG 20010904//EN"
 "http://www.w3.org/TR/2001/REC-SVG-20010904/DTD/svg10.dtd">
<svg version="1.0" xmlns="http://www.w3.org/2000/svg"
 width="1324.000000pt" height="1324.000000pt" viewBox="0 0 1324.000000 1324.000000"
 preserveAspectRatio="xMidYMid meet">
<metadata>
Created by potrace 1.14, written by Peter Selinger 2001-2017
</metadata>
<g transform="translate(0.000000,1324.000000) scale(0.100000,-0.100000)"
fill="#000000" stroke="none">
<path d="M3283 10580 c1 -75 -2 -135 -7 -140 -6 -6 -6 -10 0 -10 5 0 10 -108
10 -273 1 -149 5 -609 8 -1022 4 -412 7 -756 6 -762 0 -7 0 -19 -1 -25 0 -13
6 -735 16 -1868 3 -311 5 -610 5 -665 -1 -147 -15 -271 -37 -340 -4 -11 -8
-22 -8 -25 -13 -49 -20 -69 -30 -90 -89 -188 -104 -212 -197 -335 -52 -67
-190 -191 -285 -256 -57 -39 -103 -67 -103 -63 0 4 -8 0 -17 -8 -47 -40 -286
-123 -413 -143 -126 -20 -347 -28 -388 -13 -13 4 -22 4 -22 -3 0 -6 -4 -8 -8
-5 -5 3 -28 7 -53 10 -24 3 -63 8 -87 11 -24 3 -54 10 -68 15 -13 5 -24 8 -24
5 0 -9 -139 44 -215 82 -72 36 -225 133 -266 169 -14 13 -19 11 -35 -13 -26
-38 -41 -63 -56 -93 -7 -14 -16 -29 -21 -35 -14 -18 -73 -111 -80 -126 -3 -8
-33 -57 -66 -109 -34 -52 -66 -107 -72 -122 -6 -16 -15 -28 -20 -28 -5 0 -9
-7 -9 -15 0 -8 -3 -15 -8 -15 -4 0 -13 -15 -21 -32 -8 -18 -22 -42 -31 -53 -9
-11 -20 -27 -23 -35 -4 -8 -40 -69 -82 -135 -41 -66 -81 -131 -87 -145 -7 -14
-15 -27 -19 -30 -3 -3 -32 -50 -65 -105 -32 -55 -64 -106 -71 -113 -7 -7 -13
-18 -13 -23 0 -5 -5 -15 -10 -22 -6 -7 -63 -97 -126 -202 -64 -104 -124 -202
-135 -217 -10 -15 -19 -31 -19 -36 0 -5 -7 -15 -15 -22 -8 -7 -15 -16 -15 -20
0 -6 47 -36 168 -107 57 -34 98 -56 212 -112 58 -28 113 -56 124 -62 10 -6 26
-12 35 -14 14 -4 116 -43 166 -65 21 -9 147 -50 168 -54 7 -2 19 -5 27 -9 17
-6 130 -36 163 -43 33 -7 166 -34 201 -40 39 -7 77 -12 141 -20 28 -3 61 -7
75 -10 90 -15 293 -19 970 -18 421 0 797 3 835 7 87 8 162 16 195 22 14 3 48
7 75 11 28 3 59 8 70 10 11 3 35 7 54 10 18 3 43 8 55 10 11 3 30 7 41 9 56
13 98 23 120 29 6 2 24 6 40 10 135 35 360 110 453 152 29 13 54 24 57 24 2 0
36 15 77 34 40 18 77 34 82 34 5 0 12 4 15 9 3 4 33 22 66 38 33 17 62 33 65
36 3 3 20 11 38 18 17 8 32 17 32 22 0 5 5 9 10 9 11 0 141 79 150 91 3 3 16
12 29 19 14 7 30 17 35 21 6 5 25 20 42 34 18 14 37 25 43 25 6 0 11 4 11 8 0
5 19 22 43 39 23 17 52 39 63 49 12 11 48 42 80 69 32 28 86 78 120 112 34 34
64 56 66 50 2 -7 3 -209 3 -449 l-1 -438 266 0 c1324 -3 2814 0 2819 5 3 4 7
367 7 808 1 441 2 804 3 806 2 8 61 -84 61 -96 0 -6 4 -13 8 -15 11 -4 209
-299 210 -312 0 -5 4 -12 10 -15 5 -3 100 -143 212 -311 111 -168 209 -312
216 -321 8 -9 11 -19 7 -22 -3 -4 -2 -7 3 -7 5 0 18 -15 29 -33 10 -17 45 -69
77 -114 32 -46 55 -83 51 -83 -4 0 3 -10 14 -22 11 -13 55 -76 98 -141 42 -64
81 -120 86 -123 6 -4 2271 -7 3362 -4 l188 0 -55 80 c-31 44 -56 85 -56 90 0
6 -4 10 -10 10 -5 0 -10 6 -10 14 0 8 -4 16 -8 18 -4 2 -86 120 -182 263 -95
143 -177 262 -182 263 -4 2 -8 8 -8 13 0 12 -101 163 -112 167 -5 2 -8 10 -8
18 0 8 -4 14 -10 14 -5 0 -10 6 -10 13 0 7 -8 22 -18 33 -9 10 -33 44 -52 74
-19 30 -38 57 -42 58 -5 2 -8 9 -8 17 0 7 -7 19 -16 26 -9 7 -20 22 -25 34 -8
19 -122 188 -155 230 -9 11 -21 30 -27 43 -5 12 -14 22 -19 22 -4 0 -8 4 -8 9
0 7 -197 308 -227 346 -19 25 -89 130 -102 154 -8 14 -17 28 -20 31 -4 3 -29
39 -56 80 -28 41 -53 77 -57 78 -5 2 -8 8 -8 13 0 11 -42 72 -52 77 -5 2 -8 8
-8 13 0 9 -38 68 -51 79 -7 7 -103 152 -108 165 -2 6 -17 26 -32 46 -16 20
-29 41 -29 47 0 6 -3 12 -8 14 -4 2 -90 127 -191 278 -101 151 -199 296 -218
321 -18 26 -33 52 -33 58 0 6 -4 11 -8 11 -4 0 -21 22 -37 50 -17 27 -33 50
-37 50 -5 0 -8 5 -8 11 0 10 -53 91 -77 116 -6 7 -15 22 -18 33 -3 11 -11 20
-16 20 -5 0 -9 7 -9 15 0 8 -4 15 -9 15 -5 0 -12 8 -16 19 -3 10 -17 31 -30
47 -14 16 -25 34 -25 41 0 7 -6 16 -12 20 -14 9 -33 36 -47 68 -5 12 -16 27
-25 34 -9 7 -16 18 -16 23 0 5 -6 16 -12 23 -27 29 -38 44 -38 49 0 3 -25 42
-55 86 -30 44 -55 85 -55 90 0 7 112 191 137 226 5 5 13 19 20 30 28 46 140
225 180 286 24 37 43 72 43 77 0 6 3 11 8 11 4 0 21 23 37 51 17 28 37 62 45
75 8 13 44 70 79 126 35 57 72 112 81 123 9 11 19 27 22 35 5 15 171 282 203
327 9 13 15 26 14 29 0 4 3 10 8 13 5 3 69 103 143 221 74 118 138 217 142
218 4 2 8 8 8 13 0 5 12 28 27 52 15 23 32 50 38 59 5 9 39 63 75 119 36 57
75 120 88 142 13 22 29 45 36 52 7 8 19 27 26 44 7 17 16 31 21 31 5 0 9 7 9
15 0 8 5 15 10 15 6 0 9 3 8 8 -2 4 18 39 43 77 25 39 94 149 154 245 60 96
112 177 115 180 9 9 31 45 36 63 4 9 10 17 15 17 5 0 9 4 9 10 0 8 35 68 70
120 21 31 100 158 141 225 23 39 45 72 48 75 5 4 69 106 134 215 7 11 14 22
17 25 3 3 23 34 44 70 22 36 44 68 49 71 5 3 7 8 6 10 -2 2 13 29 34 60 20 31
37 59 37 63 0 3 -768 5 -1707 4 l-1707 -3 -25 -42 c-14 -24 -51 -82 -81 -130
-30 -49 -57 -92 -59 -98 -2 -5 -10 -16 -18 -23 -7 -7 -13 -20 -13 -28 0 -8 -4
-14 -8 -14 -5 0 -16 -15 -26 -32 -21 -40 -31 -57 -79 -131 -20 -31 -37 -62
-37 -67 0 -5 -7 -13 -16 -18 -9 -5 -16 -13 -16 -18 -1 -10 -10 -25 -79 -134
-26 -41 -138 -221 -248 -399 -111 -178 -202 -320 -202 -315 -1 5 -2 333 -3
729 l-1 720 -2662 3 -2663 2 3 -130z"/>
</g>
</svg>
