<?xml version="1.0" encoding="UTF-8"?><svg id="Layer_2" xmlns="http://www.w3.org/2000/svg" viewBox="0 0 87.94 91.14"><g id="Layer_1-2"><path d="M82.74,64.85c-8.33,19.81-30.83,16.69-28.6-8.63,0-4.54-.06-8.29-1.14-10.23-3.36,22.97-10.57,46.1-32.79,45.13-26.3-.42-26.7-33.15-2.6-34.42,3.84-.24,5.3,1.7,2.29,3.02-3.12,1.04-6.14,3.43-6.14,7.9s3.64,7.28,8.42,7.28c19.82-1.88,20.42-55.35,25.72-70.64,.57-3.91,8.64-3.8,10.16-4.24,3.87,.44,1.53,2.99,.1,6.45-1.9,6.13-2.57,17.57-3.97,30.11,12.41-10.04,11.52-34.81,32.18-24.44,1.14,.62,1.56,1.04,1.56,1.87-14.56,4.75-14.18,21.23-29.54,26.94,11.88,1.82,6.95,33.91,21.11,23.51,1.24-1.22,3.07-1.36,3.22,.42Z"/></g></svg>